<svg width="14" height="16" viewBox="0 0 14 16" fill="none" xmlns="http://www.w3.org/2000/svg">
<path d="M2.625 16C2.14375 16 1.73163 15.8258 1.38863 15.4773C1.04563 15.1289 0.874419 14.7105 0.875003 14.2222V2.66667C0.627086 2.66667 0.419128 2.58134 0.251128 2.41067C0.0831281 2.24 -0.000580305 2.02904 3.02767e-06 1.77778C3.02767e-06 1.52593 0.0840031 1.31467 0.252003 1.144C0.420003 0.973336 0.627669 0.888299 0.875003 0.888892H4.375C4.375 0.63704 4.459 0.425781 4.627 0.255114C4.795 0.0844474 5.00267 -0.000589517 5.25 3.07574e-06H8.75C8.99792 3.07574e-06 9.20587 0.0853365 9.37387 0.256003C9.54187 0.42667 9.62558 0.637632 9.625 0.888892H13.125C13.3729 0.888892 13.5809 0.974225 13.7489 1.14489C13.9169 1.31556 14.0006 1.52652 14 1.77778C14 2.02963 13.916 2.24089 13.748 2.41156C13.58 2.58222 13.3723 2.66726 13.125 2.66667V14.2222C13.125 14.7111 12.9535 15.1298 12.6105 15.4782C12.2675 15.8267 11.8557 16.0006 11.375 16H2.625ZM4.375 11.5556C4.375 11.8074 4.459 12.0187 4.627 12.1893C4.795 12.36 5.00267 12.445 5.25 12.4444C5.49792 12.4444 5.70588 12.3591 5.87388 12.1884C6.04188 12.0178 6.12558 11.8068 6.125 11.5556V5.33333C6.125 5.08148 6.041 4.87022 5.873 4.69956C5.705 4.52889 5.49733 4.44385 5.25 4.44445C5.00208 4.44445 4.79413 4.52978 4.62613 4.70045C4.45813 4.87111 4.37442 5.08208 4.375 5.33333V11.5556ZM7.875 11.5556C7.875 11.8074 7.959 12.0187 8.127 12.1893C8.295 12.36 8.50267 12.445 8.75 12.4444C8.99792 12.4444 9.20587 12.3591 9.37387 12.1884C9.54187 12.0178 9.62558 11.8068 9.625 11.5556V5.33333C9.625 5.08148 9.541 4.87022 9.373 4.69956C9.205 4.52889 8.99733 4.44385 8.75 4.44445C8.50208 4.44445 8.29412 4.52978 8.12612 4.70045C7.95812 4.87111 7.87442 5.08208 7.875 5.33333V11.5556Z" fill="#FF0000"/>
</svg>
