<svg width="96" height="96" viewBox="0 0 96 96" fill="none" xmlns="http://www.w3.org/2000/svg">
<g clip-path="url(#clip0_280_6645)">
<path d="M56.68 54.84L62.28 45.16C62.64 44.56 62.48 43.8 61.96 43.36L56.04 38.72C56.16 37.84 56.24 36.92 56.24 36C56.24 35.08 56.16 34.16 56.04 33.24L61.96 28.6C62.48 28.16 62.64 27.4 62.28 26.8L56.68 17.12C56.32 16.52 55.6 16.28 54.96 16.52L48 19.32C46.56 18.2 45 17.28 43.28 16.56L42.24 9.16C42.12 8.52 41.52 8 40.84 8H29.64C28.96 8 28.36 8.52 28.24 9.2L27.2 16.6C25.52 17.32 23.92 18.24 22.48 19.36L15.52 16.56C14.88 16.32 14.16 16.56 13.8 17.16L8.20001 26.84C7.84001 27.44 8.00001 28.2 8.52001 28.64L14.44 33.28C14.32 34.16 14.24 35.08 14.24 36C14.24 36.92 14.32 37.84 14.44 38.76L8.52001 43.4C8.00001 43.84 7.84001 44.6 8.20001 45.2L13.8 54.88C14.16 55.48 14.88 55.72 15.52 55.48L22.48 52.68C23.92 53.8 25.48 54.72 27.2 55.44L28.24 62.84C28.36 63.48 28.96 64 29.64 64H40.84C41.52 64 42.12 63.48 42.24 62.8L43.28 55.4C44.96 54.68 46.56 53.76 48 52.64L54.96 55.44C55.6 55.68 56.32 55.44 56.68 54.84ZM35.24 44C30.84 44 27.24 40.4 27.24 36C27.24 31.6 30.84 28 35.24 28C39.64 28 43.24 31.6 43.24 36C43.24 40.4 39.64 44 35.24 44Z" fill="black"/>
<path d="M87.6809 74.68L83.8409 71.72C83.9209 71.16 84.0009 70.56 84.0009 69.96C84.0009 69.36 83.9609 68.76 83.8409 68.2L87.6409 65.24C87.9609 64.96 88.0809 64.48 87.8409 64.08L84.2409 57.88C84.0409 57.48 83.5609 57.36 83.1209 57.48L78.6809 59.28C77.7609 58.56 76.7609 57.96 75.6409 57.52L74.9609 52.8C74.9209 52.32 74.5209 52 74.1209 52H66.9609C66.5209 52 66.1209 52.32 66.0809 52.76L65.4009 57.48C64.3209 57.96 63.2809 58.52 62.3609 59.24L57.9209 57.44C57.5209 57.28 57.0409 57.44 56.8009 57.84L53.2009 64.04C53.0009 64.44 53.0409 64.92 53.4009 65.2L57.2009 68.16C57.1209 68.72 57.0809 69.32 57.0809 69.92C57.0809 70.52 57.1209 71.12 57.2009 71.68L53.4009 74.64C53.0809 74.92 52.9609 75.4 53.2009 75.8L56.8009 82C57.0009 82.4 57.4809 82.52 57.9209 82.4L62.3609 80.6C63.2809 81.32 64.2809 81.92 65.4009 82.36L66.0809 87.08C66.1609 87.52 66.5209 87.84 66.9609 87.84H74.1209C74.5609 87.84 74.9609 87.52 75.0009 87.08L75.6809 82.36C76.7609 81.88 77.8009 81.32 78.6809 80.6L83.1609 82.4C83.5609 82.56 84.0409 82.4 84.2809 82L87.8809 75.8C88.1209 75.44 88.0009 74.96 87.6809 74.68ZM70.5209 75.32C67.5609 75.32 65.1209 72.92 65.1209 69.92C65.1209 66.92 67.5209 64.52 70.5209 64.52C73.5209 64.52 75.9209 66.92 75.9209 69.92C75.9209 72.92 73.4809 75.32 70.5209 75.32Z" fill="black"/>
</g>
<defs>
<clipPath id="clip0_280_6645">
<rect width="96" height="96" fill="white"/>
</clipPath>
</defs>
</svg>
