<svg width="22" height="20" viewBox="0 0 22 20" fill="none" xmlns="http://www.w3.org/2000/svg">
<path d="M15.016 10C17.776 10 20.016 7.76 20.016 5C20.016 2.24 17.776 0 15.016 0C12.256 0 10.016 2.24 10.016 5C10.016 7.76 12.256 10 15.016 10ZM20.466 15.6C20.076 15.2 19.586 15 19.016 15H12.016L9.936 14.27L10.266 13.33L12.016 14H14.816C15.166 14 15.446 13.86 15.676 13.63C15.906 13.4 16.016 13.12 16.016 12.81C16.016 12.27 15.756 11.9 15.236 11.69L7.966 9H6.016V18L13.016 20L21.046 17C21.056 16.47 20.856 16 20.466 15.6ZM4.016 9H0V20H4.016V9Z" />
</svg>
