<svg width="18" height="20" viewBox="0 0 18 20" fill="none" xmlns="http://www.w3.org/2000/svg">
<path d="M4.50064 11.25C4.33012 11.25 4.16659 11.3158 4.04601 11.4331C3.92543 11.5503 3.85769 11.7092 3.85769 11.875V14.375C3.85769 14.5408 3.92543 14.6997 4.04601 14.8169C4.16659 14.9342 4.33012 15 4.50064 15C4.67116 15 4.8347 14.9342 4.95528 14.8169C5.07585 14.6997 5.14359 14.5408 5.14359 14.375V14.1675H5.57308C5.97108 14.1675 6.35277 14.0138 6.6342 13.7402C6.91562 13.4667 7.07373 13.0956 7.07373 12.7087C7.07373 12.3219 6.91562 11.9508 6.6342 11.6773C6.35277 11.4037 5.97108 11.25 5.57308 11.25H4.50064ZM5.57308 12.9175H5.14359V12.5H5.57308C5.63004 12.5 5.68466 12.522 5.72493 12.5611C5.7652 12.6003 5.78783 12.6534 5.78783 12.7087C5.78783 12.7641 5.7652 12.8172 5.72493 12.8564C5.68466 12.8955 5.63004 12.9175 5.57308 12.9175ZM11.5731 11.8737C11.5734 11.7082 11.6413 11.5496 11.7619 11.4326C11.8824 11.3157 12.0457 11.25 12.216 11.25H13.4994C13.6699 11.25 13.8334 11.3158 13.954 11.4331C14.0746 11.5503 14.1423 11.7092 14.1423 11.875C14.1423 12.0408 14.0746 12.1997 13.954 12.3169C13.8334 12.4342 13.6699 12.5 13.4994 12.5H12.859V12.9187H13.4994C13.6699 12.9187 13.8334 12.9846 13.954 13.1018C14.0746 13.219 14.1423 13.378 14.1423 13.5437C14.1423 13.7095 14.0746 13.8685 13.954 13.9857C13.8334 14.1029 13.6699 14.1687 13.4994 14.1687H12.859V14.3737C12.8591 14.4558 12.8427 14.5371 12.8105 14.613C12.7784 14.6889 12.7312 14.7579 12.6716 14.8161C12.5512 14.9335 12.3878 14.9997 12.2173 15C12.0468 15.0003 11.8831 14.9348 11.7623 14.8178C11.6415 14.7008 11.5734 14.542 11.5731 14.3763V13.5425L11.5757 11.8737H11.5731ZM8.35834 11.25C8.18782 11.25 8.02428 11.3158 7.9037 11.4331C7.78313 11.5503 7.71539 11.7092 7.71539 11.875V14.375C7.71539 14.5408 7.78313 14.6997 7.9037 14.8169C8.02428 14.9342 8.18782 15 8.35834 15H9.00386C9.51542 15 10.006 14.8025 10.3678 14.4508C10.7295 14.0992 10.9327 13.6223 10.9327 13.125C10.9327 12.6277 10.7295 12.1508 10.3678 11.7992C10.006 11.4475 9.51542 11.25 9.00386 11.25H8.35834ZM9.00129 13.75V12.5H9.00386C9.17438 12.5 9.33792 12.5658 9.45849 12.6831C9.57907 12.8003 9.64681 12.9592 9.64681 13.125C9.64681 13.2908 9.57907 13.4497 9.45849 13.5669C9.33792 13.6842 9.17438 13.75 9.00386 13.75H9.00129ZM9.00386 5.625V0H3.21475C2.70318 0 2.21257 0.197544 1.85084 0.549175C1.48912 0.900806 1.2859 1.37772 1.2859 1.875V8.8525C0.909879 8.98173 0.584316 9.22109 0.354029 9.53763C0.123743 9.85416 5.67845e-05 10.2323 0 10.62V15.6237C5.67845e-05 16.0114 0.123743 16.3896 0.354029 16.7061C0.584316 17.0227 0.909879 17.262 1.2859 17.3913V18.125C1.2859 18.6223 1.48912 19.0992 1.85084 19.4508C2.21257 19.8025 2.70318 20 3.21475 20H14.7878C15.2994 20 15.79 19.8025 16.1517 19.4508C16.5135 19.0992 16.7167 18.6223 16.7167 18.125V17.3913C17.0922 17.2616 17.4172 17.0221 17.647 16.7056C17.8768 16.3891 18.0001 16.0111 18 15.6237V10.62C18.0001 10.2326 17.8768 9.85469 17.647 9.53819C17.4172 9.22169 17.0922 8.98215 16.7167 8.8525V7.5H10.9301C10.4186 7.5 9.92796 7.30246 9.56623 6.95083C9.2045 6.59919 9.00129 6.12228 9.00129 5.625H9.00386ZM1.93142 9.995H16.0724C16.243 9.995 16.4065 10.0608 16.5271 10.1781C16.6476 10.2953 16.7154 10.4542 16.7154 10.62V15.6237C16.7154 15.7895 16.6476 15.9485 16.5271 16.0657C16.4065 16.1829 16.243 16.2487 16.0724 16.2487H1.93142C1.7609 16.2487 1.59736 16.1829 1.47679 16.0657C1.35621 15.9485 1.28847 15.7895 1.28847 15.6237V10.62C1.28847 10.4542 1.35621 10.2953 1.47679 10.1781C1.59736 10.0608 1.7609 9.995 1.93142 9.995ZM10.2872 5.625V0.3125L16.3952 6.25H10.9301C10.7596 6.25 10.5961 6.18415 10.4755 6.06694C10.3549 5.94973 10.2872 5.79076 10.2872 5.625Z" fill="#FF0000"/>
</svg>
