<svg width="22" height="18" viewBox="0 0 22 18" fill="none" xmlns="http://www.w3.org/2000/svg">
<path d="M8.85036 0.61321C9.48944 0.213091 10.2364 0 11 0C11.7635 0 12.5105 0.213091 13.1496 0.61321L21.6443 5.93127C21.7527 5.99918 21.842 6.09172 21.904 6.20065C21.9661 6.30958 21.999 6.43153 22 6.55561C22.0009 6.6797 21.9698 6.80209 21.9094 6.91186C21.8489 7.02164 21.7611 7.1154 21.6537 7.1848L13.203 12.6624C12.5529 13.0839 11.7858 13.3091 11.0008 13.3091C10.2157 13.3091 9.44862 13.0839 8.79851 12.6624L1.57189 7.98085V12.7316C1.57189 12.9311 1.48911 13.1225 1.34177 13.2636C1.19443 13.4047 0.994588 13.484 0.786214 13.484C0.577841 13.484 0.378002 13.4047 0.230659 13.2636C0.083317 13.1225 0.000540985 12.9311 0.000540985 12.7316V6.71228C0.000540985 6.6882 0.000540945 6.66262 0.00368364 6.63704C-0.0101851 6.50008 0.01527 6.3621 0.0773014 6.23798C0.139333 6.11387 0.235584 6.00834 0.355665 5.93278L8.85036 0.61321ZM3.14323 14.2349V10.8144L7.91699 13.9099C8.8271 14.4999 9.90093 14.8152 11 14.8152C12.099 14.8152 13.1728 14.4999 14.0829 13.9099L18.8567 10.8144V14.2364C18.8568 14.415 18.7905 14.5879 18.6697 14.724L18.6681 14.727L18.665 14.73L18.6556 14.7405L18.6241 14.7736C18.4622 14.9429 18.2928 15.1056 18.1166 15.2612C17.7709 15.5667 17.2649 15.97 16.6112 16.3748C15.307 17.1814 13.3916 18 11.0015 18C8.60838 18 6.69448 17.1814 5.38869 16.3748C4.85413 16.0454 4.34998 15.6729 3.88177 15.2612C3.70603 15.1056 3.53722 14.9429 3.37579 14.7736L3.34437 14.7405L3.33494 14.73L3.3318 14.727L3.92891 14.2379C3.33022 14.724 3.3318 14.7255 3.3318 14.7255C3.21045 14.589 3.14363 14.4157 3.14323 14.2364V14.2349Z" fill="#4B4B4B"/>
</svg>
