<svg width="20" height="20" viewBox="0 0 20 20" fill="none" xmlns="http://www.w3.org/2000/svg">
<path d="M2.22222 20C1.61111 20 1.08778 19.7822 0.652224 19.3467C0.216668 18.9111 -0.000738854 18.3881 1.88644e-06 17.7778V2.22222C1.88644e-06 1.61111 0.21778 1.08778 0.653335 0.652224C1.08889 0.216668 1.61185 -0.000738854 2.22222 1.88644e-06H17.7778C18.3889 1.88644e-06 18.9122 0.21778 19.3478 0.653335C19.7833 1.08889 20.0007 1.61185 20 2.22222V17.7778C20 18.3889 19.7822 18.9122 19.3467 19.3478C18.9111 19.7833 18.3881 20.0007 17.7778 20H2.22222ZM5.55556 15.5556C5.87037 15.5556 6.13445 15.4489 6.34778 15.2356C6.56111 15.0222 6.66741 14.7585 6.66667 14.4444C6.66667 14.1296 6.56 13.8656 6.34667 13.6522C6.13333 13.4389 5.86963 13.3326 5.55556 13.3333C5.24074 13.3333 4.97667 13.44 4.76333 13.6533C4.55 13.8667 4.44371 14.1304 4.44445 14.4444C4.44445 14.7593 4.55111 15.0233 4.76445 15.2367C4.97778 15.45 5.24148 15.5563 5.55556 15.5556ZM5.55556 11.1111C5.87037 11.1111 6.13445 11.0044 6.34778 10.7911C6.56111 10.5778 6.66741 10.3141 6.66667 10C6.66667 9.68519 6.56 9.42111 6.34667 9.20778C6.13333 8.99444 5.86963 8.88815 5.55556 8.88889C5.24074 8.88889 4.97667 8.99556 4.76333 9.20889C4.55 9.42222 4.44371 9.68593 4.44445 10C4.44445 10.3148 4.55111 10.5789 4.76445 10.7922C4.97778 11.0056 5.24148 11.1119 5.55556 11.1111ZM5.55556 6.66667C5.87037 6.66667 6.13445 6.56 6.34778 6.34667C6.56111 6.13333 6.66741 5.86963 6.66667 5.55556C6.66667 5.24074 6.56 4.97667 6.34667 4.76333C6.13333 4.55 5.86963 4.44371 5.55556 4.44445C5.24074 4.44445 4.97667 4.55111 4.76333 4.76445C4.55 4.97778 4.44371 5.24148 4.44445 5.55556C4.44445 5.87037 4.55111 6.13445 4.76445 6.34778C4.97778 6.56111 5.24148 6.66741 5.55556 6.66667ZM10 15.5556H14.4444C14.7593 15.5556 15.0233 15.4489 15.2367 15.2356C15.45 15.0222 15.5563 14.7585 15.5556 14.4444C15.5556 14.1296 15.4489 13.8656 15.2356 13.6522C15.0222 13.4389 14.7585 13.3326 14.4444 13.3333H10C9.68519 13.3333 9.42111 13.44 9.20778 13.6533C8.99444 13.8667 8.88815 14.1304 8.88889 14.4444C8.88889 14.7593 8.99556 15.0233 9.20889 15.2367C9.42222 15.45 9.68593 15.5563 10 15.5556ZM10 11.1111H14.4444C14.7593 11.1111 15.0233 11.0044 15.2367 10.7911C15.45 10.5778 15.5563 10.3141 15.5556 10C15.5556 9.68519 15.4489 9.42111 15.2356 9.20778C15.0222 8.99444 14.7585 8.88815 14.4444 8.88889H10C9.68519 8.88889 9.42111 8.99556 9.20778 9.20889C8.99444 9.42222 8.88815 9.68593 8.88889 10C8.88889 10.3148 8.99556 10.5789 9.20889 10.7922C9.42222 11.0056 9.68593 11.1119 10 11.1111ZM10 6.66667H14.4444C14.7593 6.66667 15.0233 6.56 15.2367 6.34667C15.45 6.13333 15.5563 5.86963 15.5556 5.55556C15.5556 5.24074 15.4489 4.97667 15.2356 4.76333C15.0222 4.55 14.7585 4.44371 14.4444 4.44445H10C9.68519 4.44445 9.42111 4.55111 9.20778 4.76445C8.99444 4.97778 8.88815 5.24148 8.88889 5.55556C8.88889 5.87037 8.99556 6.13445 9.20889 6.34778C9.42222 6.56111 9.68593 6.66741 10 6.66667Z" fill="#4B4B4B"/>
</svg>
