<svg width="194" height="190" viewBox="0 0 194 190" fill="none" xmlns="http://www.w3.org/2000/svg">
<g clip-path="url(#clip0_111_5060)">
<path d="M123.159 42.7303H70.8846C69.6934 42.7318 68.5513 43.2072 67.709 44.0524C66.8667 44.8975 66.3928 46.0434 66.3914 47.2386V163.807L65.7923 163.99L52.9685 167.931C52.3607 168.117 51.7043 168.053 51.1432 167.754C50.5822 167.454 50.1624 166.944 49.976 166.335L11.8311 41.3208C11.6455 40.711 11.7088 40.0522 12.007 39.4892C12.3053 38.9262 12.8141 38.505 13.4218 38.3183L33.1832 32.2471L90.4723 14.6529L110.234 8.58182C110.534 8.48895 110.85 8.4565 111.164 8.48632C111.477 8.51614 111.781 8.60765 112.059 8.7556C112.337 8.90356 112.583 9.10506 112.784 9.34857C112.984 9.59208 113.134 9.87282 113.226 10.1747L122.977 42.1292L123.159 42.7303Z" fill="#F2F2F2"/>
<path d="M134.566 42.1293L122.815 3.61677C122.619 2.97508 122.3 2.37833 121.874 1.86062C121.449 1.34292 120.926 0.914403 120.335 0.599564C119.744 0.284725 119.098 0.0897293 118.432 0.0257275C117.766 -0.0382743 117.095 0.0299718 116.455 0.226559L88.6719 8.75918L31.3858 26.3564L3.6025 34.892C2.31183 35.2897 1.23114 36.1849 0.597631 37.3811C-0.0358776 38.5774 -0.170444 39.977 0.223475 41.2727L40.3873 172.893C40.7073 173.939 41.353 174.854 42.2296 175.505C43.1062 176.156 44.1676 176.507 45.2581 176.508C45.7627 176.509 46.2646 176.433 46.7467 176.283L65.7922 170.434L66.3913 170.248V169.62L65.7922 169.803L46.5701 175.709C45.4308 176.057 44.2003 175.938 43.1485 175.378C42.0967 174.817 41.3095 173.861 40.9595 172.718L0.798736 41.0954C0.625323 40.5294 0.564884 39.9347 0.620878 39.3453C0.676871 38.7558 0.848193 38.1833 1.12504 37.6604C1.4019 37.1375 1.77884 36.6745 2.23427 36.298C2.68971 35.9214 3.2147 35.6387 3.77918 35.4661L31.5625 26.9305L88.8487 9.33624L116.632 0.800616C117.06 0.669515 117.505 0.60267 117.953 0.602251C118.914 0.604416 119.848 0.915172 120.62 1.489C121.392 2.06283 121.961 2.86958 122.243 3.79109L133.94 42.1293L134.126 42.7304H134.749L134.566 42.1293Z" fill="#3F3D56"/>
<path d="M36.7491 38.4166C36.1718 38.4162 35.6098 38.2301 35.1455 37.8857C34.6813 37.5414 34.3393 37.0568 34.1696 36.5031L30.3113 23.8584C30.2076 23.5187 30.1716 23.1619 30.2054 22.8083C30.2392 22.4547 30.3421 22.1112 30.5082 21.7975C30.6743 21.4838 30.9003 21.206 31.1735 20.9799C31.4466 20.7539 31.7614 20.5841 32.1 20.4801L84.8027 4.29135C85.4863 4.08203 86.2249 4.15342 86.8561 4.48986C87.4874 4.82629 87.9599 5.40028 88.1698 6.08585L92.0282 18.7307C92.2366 19.4166 92.1654 20.1576 91.8301 20.7909C91.4948 21.4243 90.9228 21.8983 90.2396 22.1091L37.5368 38.2979C37.2816 38.3764 37.0161 38.4165 36.7491 38.4166Z" fill="#6C63FF"/>
<path d="M56.9607 13.5111C60.2695 13.5111 62.9518 10.8199 62.9518 7.50014C62.9518 4.18035 60.2695 1.48914 56.9607 1.48914C53.652 1.48914 50.9697 4.18035 50.9697 7.50014C50.9697 10.8199 53.652 13.5111 56.9607 13.5111Z" fill="#6C63FF"/>
<path d="M56.9607 11.3064C59.0559 11.3064 60.7544 9.60227 60.7544 7.50008C60.7544 5.39789 59.0559 3.69373 56.9607 3.69373C54.8655 3.69373 53.167 5.39789 53.167 7.50008C53.167 9.60227 54.8655 11.3064 56.9607 11.3064Z" fill="white"/>
<path d="M180.52 174.972H79.272C78.597 174.972 77.9498 174.702 77.4724 174.223C76.9951 173.744 76.7266 173.095 76.7258 172.418V50.6949C76.7266 50.0176 76.9951 49.3683 77.4724 48.8893C77.9498 48.4104 78.597 48.141 79.272 48.1403H180.52C181.195 48.141 181.842 48.4104 182.32 48.8894C182.797 49.3683 183.066 50.0176 183.066 50.6949V172.418C183.066 173.095 182.797 173.744 182.32 174.223C181.842 174.702 181.195 174.972 180.52 174.972Z" fill="#E6E6E6"/>
<path d="M133.94 42.1293H70.8846C69.5346 42.1312 68.2405 42.6701 67.2859 43.6279C66.3313 44.5857 65.7941 45.8841 65.7922 47.2386V169.803L66.3913 169.62V47.2386C66.3928 46.0434 66.8666 44.8976 67.709 44.0524C68.5513 43.2073 69.6934 42.7318 70.8846 42.7304H134.126L133.94 42.1293ZM188.908 42.1293H70.8846C69.5346 42.1312 68.2405 42.6701 67.2859 43.6279C66.3313 44.5857 65.7941 45.8841 65.7922 47.2386V184.891C65.7941 186.245 66.3313 187.544 67.2859 188.501C68.2405 189.459 69.5346 189.998 70.8846 190H188.908C190.258 189.998 191.552 189.459 192.506 188.501C193.461 187.544 193.998 186.245 194 184.891V47.2386C193.998 45.8841 193.461 44.5857 192.506 43.6279C191.552 42.6701 190.258 42.1312 188.908 42.1293ZM193.401 184.891C193.399 186.086 192.926 187.232 192.083 188.077C191.241 188.922 190.099 189.397 188.908 189.399H70.8846C69.6934 189.397 68.5513 188.922 67.709 188.077C66.8666 187.232 66.3928 186.086 66.3913 184.891V47.2386C66.3928 46.0434 66.8666 44.8976 67.709 44.0524C68.5513 43.2073 69.6934 42.7318 70.8846 42.7304H188.908C190.099 42.7318 191.241 43.2073 192.083 44.0524C192.926 44.8976 193.399 46.0434 193.401 47.2386V184.891Z" fill="#3F3D56"/>
<path d="M157.455 55.3535H102.338C101.623 55.3527 100.938 55.0674 100.432 54.5603C99.9267 54.0532 99.6424 53.3657 99.6416 52.6485V39.4243C99.6424 38.7072 99.9267 38.0196 100.432 37.5125C100.938 37.0054 101.623 36.7202 102.338 36.7194H157.455C158.17 36.7202 158.855 37.0054 159.36 37.5125C159.866 38.0196 160.15 38.7072 160.151 39.4243V52.6485C160.15 53.3657 159.866 54.0532 159.36 54.5603C158.855 55.0674 158.17 55.3527 157.455 55.3535Z" fill="#6C63FF"/>
<path d="M129.896 37.621C133.205 37.621 135.887 34.9298 135.887 31.61C135.887 28.2902 133.205 25.599 129.896 25.599C126.587 25.599 123.905 28.2902 123.905 31.61C123.905 34.9298 126.587 37.621 129.896 37.621Z" fill="#6C63FF"/>
<path d="M129.896 35.2713C131.912 35.2713 133.545 33.6321 133.545 31.61C133.545 29.5879 131.912 27.9487 129.896 27.9487C127.881 27.9487 126.247 29.5879 126.247 31.61C126.247 33.6321 127.881 35.2713 129.896 35.2713Z" fill="white"/>
</g>
<defs>
<clipPath id="clip0_111_5060">
<rect width="194" height="190" fill="white"/>
</clipPath>
</defs>
</svg>
