<svg width="19" height="20" viewBox="0 0 19 20" fill="none" xmlns="http://www.w3.org/2000/svg">
<path d="M5.1 16.7L4.8 16L5 15.6C3.1 15.1 2 14.3 2 14V11.8C3.3 12.4 4.8 12.8 6.6 13C7.3 12.2 8.2 11.5 9.1 11H8C5.6 11 3.3 10.4 2 9.5V6.6C3.5 7.4 5.6 8 8 8C10.4 8 12.5 7.5 14 6.6V9.4C13.7 9.6 13.4 9.8 13 10C14 10 15 10.2 16 10.6V4C16 1.8 12.4 0 8 0C3.6 0 0 1.8 0 4V14C0 15.8 2.4 17.3 5.7 17.8C5.5 17.5 5.3 17.1 5.1 16.7ZM8 2C11.9 2 14 3.5 14 4C14 4.5 11.9 6 8 6C4.1 6 2 4.5 2 4C2 3.5 4.1 2 8 2ZM13 15C13.6 15 14 15.4 14 16C14 16.6 13.6 17 13 17C12.4 17 12 16.6 12 16C12 15.4 12.4 15 13 15ZM13 12C10.3 12 7.9 13.7 7 16C7.9 18.3 10.3 20 13 20C15.7 20 18.1 18.3 19 16C18.1 13.7 15.7 12 13 12ZM13 18.5C11.6 18.5 10.5 17.4 10.5 16C10.5 14.6 11.6 13.5 13 13.5C14.4 13.5 15.5 14.6 15.5 16C15.5 17.4 14.4 18.5 13 18.5Z" />
</svg>
